<svg width="562" height="229" viewBox="0 0 562 229" fill="none" xmlns="http://www.w3.org/2000/svg">
<g clip-path="url(#clip0_112_380)">
<path d="M200.577 -4L130 48.5614L308.78 174H310.77L567 -4H200.577Z" fill="#00EBD0"/>
<path d="M86 -4L0 60.0776L217.85 213H220.275L532.5 -4H86Z" fill="#465EFF"/>
<path d="M155.601 130.049L142.071 139L142 130.056L148.84 125.433L155.601 130.049Z" fill="#FCFC30"/>
<path fill-rule="evenodd" clip-rule="evenodd" d="M233.275 102.629C237.308 102.629 240.489 103.481 242.818 105.184C245.182 106.853 246.364 109.269 246.364 112.432C246.364 115.492 245.043 117.925 242.401 119.733C246.607 121.958 248.711 125.069 248.711 129.067C248.711 130.979 248.207 132.682 247.199 134.177C246.19 135.672 244.748 136.837 242.87 137.671C240.993 138.505 238.803 138.923 236.3 138.923H220.239V102.629H233.275ZM235.674 122.705C233.554 123.331 230.772 123.922 227.331 124.478V132.665H235.622C237.325 132.665 238.646 132.317 239.585 131.622C240.524 130.927 240.993 129.953 240.993 128.702C240.993 126.06 239.22 124.061 235.674 122.705ZM227.331 118.481C230.216 118.064 232.493 117.612 234.162 117.126C235.865 116.639 237.1 116.048 237.864 115.353C238.629 114.657 239.012 113.806 239.012 112.797C239.012 111.476 238.507 110.486 237.499 109.825C236.491 109.13 235.048 108.782 233.171 108.782H227.331V118.481Z" fill="#FCFC30"/>
<path fill-rule="evenodd" clip-rule="evenodd" d="M265.997 102.629C270.029 102.629 273.21 103.481 275.539 105.184C277.903 106.853 279.085 109.269 279.085 112.432C279.085 115.492 277.764 117.925 275.122 119.733C279.329 121.958 281.432 125.069 281.432 129.067C281.432 130.979 280.928 132.682 279.92 134.177C278.911 135.672 277.469 136.837 275.592 137.671C273.714 138.505 271.524 138.923 269.021 138.923H252.96V102.629H265.997ZM268.395 122.705C266.275 123.331 263.494 123.922 260.052 124.478V132.665H268.343C270.047 132.665 271.368 132.317 272.306 131.622C273.245 130.927 273.714 129.953 273.714 128.702C273.714 126.06 271.941 124.061 268.395 122.705ZM260.052 118.481C262.937 118.064 265.215 117.612 266.883 117.126C268.587 116.639 269.821 116.048 270.586 115.353C271.35 114.657 271.733 113.806 271.733 112.797C271.733 111.476 271.229 110.486 270.221 109.825C269.212 109.13 267.77 108.782 265.892 108.782H260.052V118.481Z" fill="#FCFC30"/>
<path d="M187.9 95.0342L156.419 116.361L175.876 129.506L185.012 123.309L177.914 118.599L194.296 107.609L207.999 116.715L174.887 138.808L142.214 116.868L181.278 90.5757L187.9 95.0342Z" fill="#FCFC30"/>
<path d="M207.906 94.6281L168.872 120.824L162.25 116.363L193.735 95.0388L174.281 81.894L165.143 88.0933L172.241 92.7981L155.859 103.787L142.153 94.6851L175.149 72.5915L207.906 94.6281Z" fill="#FCFC30"/>
<path d="M253.71 94.0211C253.71 96.1384 253.236 97.7375 252.288 98.8182C251.362 99.921 249.994 100.472 248.186 100.472C247.039 100.472 245.969 100.119 244.976 99.4136L245.803 96.9986C246.509 97.4397 247.259 97.6603 248.053 97.6603C248.847 97.6603 249.487 97.3735 249.972 96.8001C250.479 96.2266 250.733 95.3444 250.733 94.1534V76.9144H253.71V94.0211Z" fill="#FCFC30"/>
<path d="M223.626 95.7137H236.835V99.0628H220.202V72.8715H223.626V95.7137Z" fill="#FCFC30"/>
<path fill-rule="evenodd" clip-rule="evenodd" d="M280.131 99.0628H276.363L273.789 92.1987H262.374L259.837 99.0628H256.218L266.291 73.0983H270.021L280.131 99.0628ZM263.493 89.2515H272.707L268.082 76.7915L263.493 89.2515Z" fill="#FCFC30"/>
<path fill-rule="evenodd" clip-rule="evenodd" d="M238.623 72.2401C240.437 72.2401 242.099 72.6934 243.61 73.6001C245.121 74.5067 246.317 75.7408 247.199 77.3022C248.08 78.8636 248.521 80.5762 248.521 82.4398C248.521 84.3034 248.08 86.0159 247.199 87.5774C246.317 89.1388 245.121 90.3729 243.61 91.2795C242.099 92.1862 240.437 92.6395 238.623 92.6395C236.785 92.6395 235.11 92.1862 233.599 91.2795C232.088 90.3729 230.892 89.1388 230.01 87.5774C229.154 86.0159 228.726 84.3034 228.726 82.4398C228.726 80.5762 229.154 78.8636 230.01 77.3022C230.892 75.7408 232.088 74.5067 233.599 73.6001C235.11 72.6934 236.785 72.2401 238.623 72.2401ZM238.623 75.4133C237.389 75.4133 236.281 75.7155 235.299 76.3199C234.317 76.9244 233.549 77.7681 232.995 78.8511C232.466 79.9088 232.201 81.105 232.201 82.4398C232.201 83.7746 232.466 84.9835 232.995 86.0664C233.549 87.1241 234.317 87.9551 235.299 88.5596C236.281 89.164 237.389 89.4663 238.623 89.4663C239.857 89.4663 240.953 89.164 241.91 88.5596C242.892 87.9551 243.648 87.1241 244.177 86.0664C244.731 84.9835 245.008 83.7746 245.008 82.4398C245.008 81.105 244.731 79.9088 244.177 78.8511C243.648 77.7681 242.892 76.9244 241.91 76.3199C240.953 75.7155 239.857 75.4133 238.623 75.4133Z" fill="#FCFC30"/>
<path d="M208.257 81.8985L201.62 86.3409L194.834 81.6864L208.268 72.7718L208.257 81.8985Z" fill="#FCFC30"/>
<path d="M252.222 70C252.817 70 253.302 70.1985 253.677 70.5955C254.052 70.9704 254.24 71.4556 254.24 72.0511C254.24 72.6466 254.052 73.1429 253.677 73.5399C253.302 73.9369 252.817 74.1354 252.222 74.1354C251.648 74.1354 251.163 73.9369 250.766 73.5399C250.391 73.1429 250.204 72.6577 250.204 72.0843C250.204 71.5108 250.391 71.0256 250.766 70.6286C251.163 70.2095 251.648 70 252.222 70Z" fill="#FCFC30"/>
</g>
<defs>
<clipPath id="clip0_112_380">
<rect width="562" height="229" fill="white" transform="matrix(-1 0 0 1 562 0)"/>
</clipPath>
</defs>
</svg>
